# Blender v2.91.2 OBJ File: 'Sword in stone.blend'
# www.blender.org
mtllib Stone.mtl
o Cube_Cube.001
v -0.097365 0.051817 0.223852
v -0.097365 0.182647 0.166777
v -0.097365 0.051817 -0.222887
v -0.097365 0.182647 -0.166850
v 0.097816 0.051817 0.223852
v 0.097816 0.182647 0.166777
v 0.097816 0.051817 -0.222887
v 0.097816 0.182647 -0.166850
v -0.097365 0.001774 -0.298763
v -0.097365 0.001774 0.300282
v -0.097365 0.232691 0.199543
v -0.097365 0.232691 -0.199856
v 0.097816 0.232691 -0.199856
v 0.097816 0.001774 -0.298763
v 0.097816 0.001774 0.300282
v 0.097816 0.232691 0.199543
vt 0.817728 0.474241
vt 0.749643 0.472344
vt 0.749643 0.379682
vt 0.817728 0.377787
vt 0.843772 0.365940
vt 0.723600 0.365940
vt 0.723600 0.245768
vt 0.843772 0.245768
vt 0.817729 0.233921
vt 0.749643 0.232026
vt 0.749643 0.139363
vt 0.817728 0.137467
vt 0.843772 0.125596
vt 0.723600 0.125596
vt 0.723600 0.005424
vt 0.843772 0.005424
vt 0.963944 0.245768
vt 0.963944 0.125596
vt 0.603428 0.245768
vt 0.603428 0.125596
vt 0.843772 0.486112
vt 0.723600 0.486112
vn -1.0000 -0.0000 0.0000
vn 0.0000 0.3937 -0.9192
vn 1.0000 0.0000 0.0000
vn 0.0000 0.3999 0.9166
vn 0.0000 -1.0000 0.0000
vn 0.0000 1.0000 0.0000
usemtl Material.002
s off
f 1/1/1 2/2/1 4/3/1 3/4/1
f 9/5/2 12/6/2 13/7/2 14/8/2
f 7/9/3 8/10/3 6/11/3 5/12/3
f 15/13/4 16/14/4 11/15/4 10/16/4
f 9/17/5 14/8/5 15/13/5 10/18/5
f 13/7/6 12/19/6 11/20/6 16/14/6
f 1/1/1 3/4/1 9/5/1 10/21/1
f 2/2/1 1/1/1 10/21/1 11/22/1
f 4/3/1 2/2/1 11/22/1 12/6/1
f 3/4/1 4/3/1 12/6/1 9/5/1
f 8/10/3 7/9/3 14/8/3 13/7/3
f 7/9/3 5/12/3 15/13/3 14/8/3
f 6/11/3 8/10/3 13/7/3 16/14/3
f 5/12/3 6/11/3 16/14/3 15/13/3
